HIERARCHY
ROOT Hips
{
	OFFSET	0.000000	0.000000	0.000000
	CHANNELS 6 Xposition Yposition Zposition Zrotation Xrotation Yrotation
	JOINT LeftUpLeg
	{
		OFFSET	12.811937	-7.635976	0.557276
		CHANNELS 3 Zrotation Xrotation Yrotation
		JOINT LeftLeg
		{
			OFFSET	-0.429270	-42.206159	-1.204951
			CHANNELS 3 Zrotation Xrotation Yrotation
			JOINT LeftFoot
			{
				OFFSET	-2.112259	-42.464481	-3.973220
				CHANNELS 3 Zrotation Xrotation Yrotation
				JOINT LeftFootHeel
				{
					OFFSET	0.387196	-5.329707	-3.419729
					CHANNELS 3 Zrotation Xrotation Yrotation
					End Site
					{
						OFFSET	0.327567	-0.000003	16.505428
					}
				}
			}
		}
	}
	JOINT RightUpLeg
	{
		OFFSET	-12.811937	-7.635976	0.557276
		CHANNELS 3 Zrotation Xrotation Yrotation
		JOINT RightLeg
		{
			OFFSET	0.429270	-42.206159	-1.204951
			CHANNELS 3 Zrotation Xrotation Yrotation
			JOINT RightFoot
			{
				OFFSET	2.112259	-42.464481	-3.973220
				CHANNELS 3 Zrotation Xrotation Yrotation
				JOINT RightFootHeel
				{
					OFFSET	-0.387198	-5.329707	-3.419729
					CHANNELS 3 Zrotation Xrotation Yrotation
					End Site
					{
						OFFSET	-0.327566	-0.000003	16.505428
					}
				}
			}
		}
	}
	JOINT Spine
	{
		OFFSET	0.000000	13.731315	-1.007646
		CHANNELS 3 Zrotation Xrotation Yrotation
		JOINT Spine1
		{
			OFFSET	0.000000	12.091746	-0.604589
			CHANNELS 3 Zrotation Xrotation Yrotation
			JOINT LeftShoulder
			{
				OFFSET	5.746115	20.990027	-0.833816
				CHANNELS 3 Zrotation Xrotation Yrotation
				JOINT LeftArm
				{
					OFFSET	10.881538	-1.359258	0.219250
					CHANNELS 3 Zrotation Xrotation Yrotation
					JOINT LeftForeArm
					{
						OFFSET	4.390314	-31.537147	0.202818
						CHANNELS 3 Zrotation Xrotation Yrotation
						JOINT LeftHand
						{
							OFFSET	3.168650	-24.865023	5.373370
							CHANNELS 3 Zrotation Xrotation Yrotation
							End Site
							{
								OFFSET	1.457528	-10.806075	2.170267
							}
						}
					}
				}
			}
			JOINT RightShoulder
			{
				OFFSET	-5.746115	20.990027	-0.833816
				CHANNELS 3 Zrotation Xrotation Yrotation
				JOINT RightArm
				{
					OFFSET	-10.881538	-1.359258	0.219250
					CHANNELS 3 Zrotation Xrotation Yrotation
					JOINT RightForeArm
					{
						OFFSET	-4.390314	-31.537147	0.202818
						CHANNELS 3 Zrotation Xrotation Yrotation
						JOINT RightHand
						{
							OFFSET	-3.168650	-24.865023	5.373370
							CHANNELS 3 Zrotation Xrotation Yrotation
							End Site
							{
								OFFSET	-1.457528	-10.806075	2.170267
							}
						}
					}
				}
			}
			JOINT Neck
			{
				OFFSET	0.000000	27.075639	0.680489
				CHANNELS 3 Zrotation Xrotation Yrotation
				JOINT Head
				{
					OFFSET	0.000000	12.391287	1.239129
					CHANNELS 3 Zrotation Xrotation Yrotation
					End Site
					{
						OFFSET	0.000000	13.818691	-0.105853
					}
				}
			}
		}
	}
}
MOTION
Frames:    10
Frame Time: 0.016667
-0.136806	100.330115	-0.514370	-0.127225	0.841559	0.853979	0.134737	1.320640	-9.876651	-0.540829	-1.355113	1.298847	0.407857	0.046344	8.146976	0.	0.	0.	-0.285899	-1.391782	-1.654351	0.326678	-0.401764	-2.040391	-1.633449	1.147055	0.561377	0.	0.	0.	0.000000	0.000000	0.000000	0.423239	5.199309	-3.997280	-2.006682	-3.754312	-3.682813	4.649764	-1.105460	-9.384322	-7.585579	-3.017567	5.973113	9.192920	-1.089337	-23.721903	1.119319	-2.485839	-4.944744	-4.520156	-5.493225	12.905497	6.537849	-3.324365	3.438058	-7.004568	-1.412820	40.386250	0.723212	-3.116389	-6.440535	1.225826	-1.845655	-0.489669	
-0.136806	100.330115	-0.514370	-0.127225	0.841559	0.853979	0.134737	1.320640	-9.876651	-0.546221	-1.353501	1.241635	0.413165	0.045022	8.204071	0.	0.	0.	-0.285899	-1.391782	-1.654351	0.326678	-0.401764	-2.040391	-1.633449	1.147055	0.561377	0.	0.	0.	0.000000	0.000000	0.000000	0.436141	5.290597	-3.997173	-2.051902	-3.806579	-3.777037	4.690337	-1.133780	-9.261235	-7.598078	-2.944715	5.857474	9.189711	-1.144170	-23.650673	1.106595	-2.557029	-4.954046	-4.529461	-5.461157	12.927485	6.545419	-3.383622	3.412247	-6.489784	-1.230496	40.423969	0.634376	-3.204332	-6.508334	1.200950	-2.253389	-0.323766	
-0.136806	100.330115	-0.514370	-0.127225	0.841559	0.853979	0.134737	1.320640	-9.876651	-0.551697	-1.351854	1.182926	0.418558	0.043684	8.262662	0.	0.	0.	-0.285899	-1.391782	-1.654351	0.326678	-0.401764	-2.040391	-1.633449	1.147055	0.561377	0.	0.	0.	0.000000	0.000000	0.000000	0.449050	5.382323	-3.996943	-2.059877	-3.840684	-3.873654	4.715535	-1.157434	-9.158351	-7.623955	-2.878244	5.724948	9.152423	-1.214858	-23.523926	1.140257	-2.596856	-4.940845	-4.633923	-5.458605	12.958605	6.604740	-3.474240	3.359383	-6.346881	-1.209938	40.389679	0.555106	-3.313832	-6.593536	1.100254	-2.749763	-0.074379	
-0.136806	100.330115	-0.514370	-0.127225	0.841559	0.853979	0.134737	1.320640	-9.876651	-0.553581	-1.351259	1.161551	0.420413	0.043207	8.283997	0.	0.	0.	-0.285899	-1.391782	-1.654351	0.326678	-0.401764	-2.040391	-1.633449	1.147055	0.561377	0.	0.	0.	0.000000	0.000000	0.000000	0.507288	5.512880	-3.996467	-2.040048	-3.839486	-3.999625	4.745956	-1.256666	-9.135694	-7.682100	-2.659792	5.625624	8.940532	-1.337894	-23.165674	1.227028	-2.628190	-4.900462	-4.951921	-5.485193	12.908752	6.841257	-3.724058	3.409941	-6.226535	-1.098491	40.246361	0.352066	-3.561272	-6.672380	0.879064	-3.618811	0.336380	
-0.136806	100.330115	-0.514370	-0.127225	0.841559	0.853979	0.145588	1.284927	-9.873317	-0.570469	-1.317902	1.158297	0.420413	0.043207	8.283997	0.	0.	0.	-0.285899	-1.391782	-1.654351	0.326678	-0.401764	-2.040391	-1.633449	1.147055	0.561377	0.	0.	0.	0.000000	0.000000	0.000000	0.507288	5.512880	-3.996467	-2.040048	-3.839486	-3.999625	4.745956	-1.256666	-9.135694	-7.682100	-2.659792	5.625624	8.940532	-1.337894	-23.165674	1.227028	-2.628190	-4.900462	-4.951921	-5.485193	12.908752	6.841257	-3.724058	3.409941	-6.226535	-1.098491	40.246361	0.352066	-3.561272	-6.672380	0.879064	-3.618811	0.336380	
-0.137338	100.329989	-0.526374	-0.123309	0.752817	0.854690	0.147617	1.325135	-9.812790	-0.585399	-1.266490	1.083941	0.421048	0.039577	8.297200	0.	0.	0.	-0.288499	-1.302989	-1.654672	0.326678	-0.401764	-2.040391	-1.633449	1.147055	0.561377	0.	0.	0.	0.000000	-0.000001	0.000000	0.601713	5.812614	-4.069590	-1.947578	-3.796707	-4.080643	4.847851	-1.517744	-9.345475	-7.692765	-2.148849	5.502339	8.268932	-1.324368	-22.408113	1.350795	-2.602364	-4.899411	-5.422303	-5.613003	12.572867	7.192913	-4.354312	4.125397	-5.706824	-0.625795	39.811676	0.009797	-4.101723	-6.588755	0.388317	-5.068822	1.014976	
-0.138744	100.328904	-0.538667	-0.121469	0.626134	0.827208	0.120406	1.413075	-9.684946	-0.566637	-1.211939	0.984238	0.419552	0.028816	8.297385	0.	0.	0.	-0.285345	-1.178738	-1.608846	0.323965	-0.399630	-2.058079	-1.633449	1.147055	0.561377	0.	0.	0.	0.000000	-0.000001	0.000000	0.674796	6.056604	-4.160883	-1.909384	-3.742376	-4.017977	4.942379	-1.733587	-9.523296	-7.680915	-1.824566	5.428292	7.805780	-1.230525	-22.102436	1.371769	-2.525852	-4.866560	-5.698750	-5.730703	12.151618	7.400817	-4.869186	4.648203	-4.971598	-0.142895	39.588486	-0.196973	-4.480202	-6.413084	0.033458	-5.874457	1.432365	
-0.141874	100.326123	-0.544740	-0.125632	0.473517	0.741584	0.098313	1.527782	-9.499418	-0.544338	-1.170746	0.944317	0.414701	0.030064	8.238335	0.	0.	0.	-0.269469	-1.033880	-1.466968	0.315434	-0.392885	-2.113424	-1.633449	1.147055	0.561377	0.	0.	0.	0.000000	-0.000001	0.000000	0.793774	6.335008	-4.218668	-1.913986	-3.704232	-3.963331	5.070253	-1.941410	-9.683489	-7.720527	-1.514347	5.469591	7.393058	-1.148438	-22.091185	1.337363	-2.448477	-4.836872	-6.044865	-5.930470	11.552961	7.818840	-5.519008	5.051097	-4.005676	0.593011	39.585690	-0.476722	-4.916822	-6.151851	-0.342850	-6.718473	1.897484	
-0.143848	100.324262	-0.546962	-0.129395	0.389946	0.685201	0.090153	1.593176	-9.420482	-0.533834	-1.151571	0.954729	0.412057	0.030755	8.205822	0.	0.	0.	-0.258286	-0.956107	-1.369667	0.309633	-0.387756	-2.153857	-1.633449	1.147055	0.561377	0.	0.	0.	0.000000	0.000000	0.000000	0.860367	6.464652	-4.249741	-1.915652	-3.663746	-3.926701	5.126279	-2.042890	-9.754106	-7.760126	-1.366739	5.529913	7.242668	-1.131243	-22.213228	1.309112	-2.384071	-4.819634	-6.244095	-6.079759	11.186419	8.100291	-5.873903	5.244871	-3.389763	1.048418	39.535213	-0.633438	-5.130417	-5.985137	-0.527487	-7.155238	2.157275	
-0.147495	100.319350	-0.551302	-0.141491	0.188840	0.538445	0.100065	1.794384	-9.273935	-0.528141	-1.153408	1.022451	0.406434	0.032207	8.138201	0.	0.	0.	-0.227440	-0.770403	-1.113690	0.289883	-0.373259	-2.288667	-1.629614	1.145726	0.587986	0.	0.	0.	0.000000	-0.000001	0.000000	0.974319	6.766832	-4.288857	-1.885556	-3.558272	-3.848845	5.263505	-2.280945	-9.872197	-7.850698	-1.072097	5.577234	6.981785	-1.061582	-22.571829	1.261299	-2.281128	-4.806686	-6.672472	-6.429819	10.368176	8.726805	-6.674827	5.722401	-1.874870	2.081623	39.408310	-0.883402	-5.603613	-5.609043	-0.928039	-8.040060	2.779929	
